<svg xmlns="http://www.w3.org/2000/svg" enable-background="new 0 0 64 64" viewBox="0 0 64 64"><path fill="#b4cbea" d="M26.646,15.354l1.289-1.287c0.375-0.375,0.586-0.884,0.586-1.415V12.5c0-0.552,0.448-1,1-1h10    c0.552,0,1,0.448,1,1v0.12c0,0.549,0.226,1.074,0.625,1.452l1.353,1.282h0.051l0.82-4.1c0.169-0.844,0.123-1.739-0.255-2.512    C42.464,7.414,41.099,6.5,39.521,6.5h-4h-2.032h-4c-1.578,0-2.943,0.914-3.594,2.242c-0.379,0.773-0.424,1.668-0.255,2.512    l0.82,4.1H26.646z"/><path fill="#f4f8f8" d="M42.499,15.354l-1.353-1.282c-0.399-0.378-0.625-0.903-0.625-1.452V12.5c0-0.552-0.448-1-1-1h-10    c-0.552,0-1,0.448-1,1v0.152c0,0.531-0.211,1.04-0.586,1.415l-1.289,1.287H26.5v6.064v0.005v0.779c0,1.379,0.711,2.661,1.881,3.39    l3.484,2.172c1.619,1.009,3.671,1.008,5.288-0.003l3.469-2.168c1.168-0.73,1.878-2.01,1.878-3.388v-0.782v-0.005v-6.064H42.499z"/><path fill="#f4f8f8" d="M42.499,15.354l-1.353-1.282c-0.399-0.378-0.625-0.903-0.625-1.452V12.5c0-0.552-0.448-1-1-1h-10    c-0.552,0-1,0.448-1,1v0.152c0,0.531-0.211,1.04-0.586,1.415l-1.289,1.287H26.5v6.064v0.005v0.779c0,1.379,0.711,2.661,1.881,3.39    l3.484,2.172c1.619,1.009,3.671,1.008,5.288-0.003l3.469-2.168c1.168-0.73,1.878-2.01,1.878-3.388v-0.782v-0.005v-6.064H42.499z"/><path fill="#b4cbea" d="M26.646,15.354l1.289-1.287c0.375-0.375,0.586-0.884,0.586-1.415V12.5c0-0.552,0.448-1,1-1h10    c0.552,0,1,0.448,1,1v0.12c0,0.549,0.226,1.074,0.625,1.452l1.353,1.282h0.051l0.82-4.1c0.169-0.844,0.123-1.739-0.255-2.512    C42.464,7.414,41.099,6.5,39.521,6.5h-4h-2.032h-4c-1.578,0-2.943,0.914-3.594,2.242c-0.379,0.773-0.424,1.668-0.255,2.512    l0.82,4.1H26.646z"/><path fill="#79a1d5" d="M39.521,6.5h-0.087l-5,5h5.087c0.552,0,1,0.448,1,1v0.12c0,0.549,0.226,1.074,0.625,1.452l1.353,1.282h0.051    l0.82-4.1c0.169-0.844,0.123-1.739-0.255-2.512C42.464,7.414,41.099,6.5,39.521,6.5z"/><path fill="#dbe7f6" d="M41.146,14.073c-0.399-0.378-0.625-0.903-0.625-1.452V12.5c0-0.238-0.095-0.448-0.234-0.62L27.423,24.744    c0.27,0.327,0.588,0.617,0.958,0.848l3.484,2.172c1.619,1.009,3.671,1.008,5.288-0.003l3.469-2.168    c1.168-0.73,1.878-2.01,1.878-3.388v-0.782v-0.005v-6.064h-0.001L41.146,14.073z"/><path fill="#f4f8f8" d="M26.107,14.5h-0.586c-0.552,0-1,0.448-1,1v3c0,0.552,0.448,1,1,1H26.5"/><path fill="#dbe7f6" d="M42.721,14.5H43.5c0.552,0,1,0.448,1,1v3c0,0.552-0.448,1-1,1h-0.979"/><path fill="#f4f8f8" d="M40.336,33.514h1.997c5.523,0,10,4.477,10,10v14h-36v-14c0-5.523,4.477-10,10-10h1.896"/><path fill="#dbe7f6" d="M46.48,34.422L23.389,57.514h28.945v-14C52.334,39.472,49.931,35.999,46.48,34.422z"/><polyline fill="#b4cbea" points="33.312 36.612 31.377 51.418 34.377 55.418 37.377 51.418 35.443 36.612"/><rect width="3.353" height="4.915" x="29.771" y="31.636" fill="#b4cbea" transform="rotate(-45.001 31.447 34.094)"/><rect width="3.353" height="5.027" x="35.655" y="31.54" fill="#b4cbea" transform="rotate(-134.999 37.331 34.054)"/><rect width="5.027" height="1.628" x="35.427" y="33.849" fill="#79a1d5" transform="rotate(-45.001 37.94 34.664)"/><rect width="1.628" height="5.027" x="30.063" y="32.15" fill="#79a1d5" transform="rotate(-45.001 30.877 34.664)"/><path fill="#b4cbea" d="M35.425,28.451h-2c-0.729,0-1.432-0.112-2.093-0.319h-0.001v3.474l3.046,3.032l2.954-2.956v-3.494l-0.025,0    C36.707,28.355,36.078,28.451,35.425,28.451z"/><polygon fill="#dbe7f6" points="34.377 34.639 37.331 31.683 37.331 28.578 32.82 33.089"/><polygon fill="#79a1d5" points="37.014 48.634 32.681 52.966 31.377 51.492 31.68 49.905 36.5 45.085"/><polygon fill="#dbe7f6" points="36 41.831 32.32 45.511 32.681 41.712 35.645 38.749"/><path fill="#4574ba" d="M31.515 32.124c-.276 0-.5-.224-.5-.5l-.002-4.036c0-.276.224-.5.5-.5l0 0c.276 0 .5.224.5.5l.002 4.036C32.015 31.9 31.791 32.124 31.515 32.124L31.515 32.124zM37.524 32.124c-.276 0-.5-.224-.5-.5l-.001-4.069c0-.276.224-.5.5-.5s.5.224.5.5l.001 4.069C38.024 31.9 37.801 32.124 37.524 32.124zM35.021 26h-1c-.276 0-.5-.224-.5-.5s.224-.5.5-.5h1c.276 0 .5.224.5.5S35.297 26 35.021 26zM34.521 21c-.827 0-1.5-.673-1.5-1.5 0-.276.224-.5.5-.5s.5.224.5.5c0 .275.225.5.5.5s.5-.225.5-.5c0-.276.224-.5.5-.5s.5.224.5.5C36.021 20.327 35.348 21 34.521 21z"/><circle cx="31.02" cy="16.999" r="1" fill="#4574ba"/><path fill="#4574ba" d="M33.005,16.004c-0.152,0-0.303-0.069-0.4-0.201c-0.374-0.5-0.943-0.791-1.567-0.803    c-0.624,0.012-1.192,0.303-1.565,0.802c-0.165,0.223-0.479,0.268-0.699,0.102c-0.222-0.165-0.267-0.478-0.102-0.699    c0.536-0.72,1.38-1.163,2.276-1.201C30.979,14,31.01,14.001,31.037,14c0.03,0.001,0.061,0,0.091,0.003    c0.896,0.039,1.739,0.481,2.277,1.202c0.165,0.221,0.12,0.534-0.102,0.699C33.215,15.972,33.109,16.004,33.005,16.004z"/><circle cx="38.02" cy="16.999" r="1" fill="#4574ba"/><path fill="#4574ba" d="M40.005 16.004c-.152 0-.303-.069-.4-.201-.374-.5-.943-.791-1.567-.803-.624.012-1.192.303-1.565.802-.164.223-.478.268-.699.102-.222-.165-.267-.478-.102-.699.536-.72 1.38-1.163 2.276-1.201C37.979 14 38.01 14.001 38.037 14c.03.001.061 0 .091.003.896.039 1.739.481 2.277 1.202.165.221.12.534-.102.699C40.215 15.972 40.109 16.004 40.005 16.004zM26.5 20h-.979c-.827 0-1.5-.673-1.5-1.5v-3c0-.827.673-1.5 1.5-1.5h.587c.276 0 .5.224.5.5s-.224.5-.5.5h-.587c-.275 0-.5.225-.5.5v3c0 .275.225.5.5.5H26.5c.276 0 .5.224.5.5S26.776 20 26.5 20zM43.5 20h-.979c-.276 0-.5-.224-.5-.5s.224-.5.5-.5H43.5c.275 0 .5-.225.5-.5v-3c0-.275-.225-.5-.5-.5h-.779c-.276 0-.5-.224-.5-.5s.224-.5.5-.5H43.5c.827 0 1.5.673 1.5 1.5v3C45 19.327 44.327 20 43.5 20z"/><path fill="#4574ba" d="M34.507,29.014c-1.011,0-2.022-0.275-2.906-0.825l-3.483-2.173C26.792,25.19,26,23.765,26,22.202V15.48    c0-0.276,0.224-0.5,0.5-0.5s0.5,0.224,0.5,0.5v6.722c0,1.215,0.615,2.323,1.646,2.965l3.483,2.173    c1.447,0.899,3.313,0.898,4.759-0.003l3.469-2.168C41.386,24.525,42,23.417,42,22.205V15.48c0-0.276,0.224-0.5,0.5-0.5    s0.5,0.224,0.5,0.5v6.725c0,1.56-0.79,2.984-2.113,3.812l-3.469,2.168C36.534,28.737,35.521,29.014,34.507,29.014z"/><path fill="#4574ba" d="M34.542 23.992c-1.269 0-2.447-.399-3.319-1.124-.213-.177-.241-.492-.065-.704.177-.212.494-.24.704-.065 1.367 1.137 3.994 1.137 5.361 0 .211-.175.526-.146.704.065.176.212.147.527-.065.704C36.989 23.593 35.811 23.992 34.542 23.992zM26.521 15.979c-.128 0-.256-.049-.354-.146-.195-.195-.195-.512 0-.707l1.414-1.413c.279-.279.439-.666.439-1.061V12.5c0-.827.673-1.5 1.5-1.5h10c.827 0 1.5.673 1.5 1.5v.12c0 .41.171.808.469 1.089l1.375 1.303c.2.19.209.507.02.707-.19.201-.507.208-.707.02l-1.375-1.303c-.496-.47-.781-1.132-.781-1.815V12.5c0-.275-.225-.5-.5-.5h-10c-.275 0-.5.225-.5.5v.152c0 .668-.26 1.295-.732 1.768l-1.414 1.413C26.776 15.931 26.648 15.979 26.521 15.979z"/><path fill="#4574ba" d="M42.521,16c-0.033,0-0.066-0.003-0.099-0.01c-0.271-0.054-0.447-0.317-0.393-0.588l0.85-4.246    c0.114-0.569,0.169-1.411-0.214-2.194C42.072,7.752,40.867,7,39.521,7H29.488c-1.347,0-2.552,0.752-3.145,1.962    c-0.384,0.781-0.328,1.624-0.214,2.193l0.849,4.247c0.054,0.271-0.121,0.534-0.393,0.588c-0.266,0.053-0.533-0.12-0.588-0.393    l-0.849-4.246c-0.207-1.033-0.104-2.013,0.296-2.829C26.207,6.967,27.757,6,29.488,6h10.032c1.731,0,3.28,0.967,4.044,2.522    c0.4,0.818,0.503,1.797,0.296,2.83l-0.85,4.245C42.963,15.836,42.755,16,42.521,16z"/><rect width="2.121" height="2.121" x="33.49" y="35.078" fill="#b4cbea" transform="rotate(45.001 34.551 36.138)"/><path fill="#4574ba" d="M34.551 38.139c-.128 0-.256-.049-.354-.146l-1.5-1.5c-.195-.195-.195-.512 0-.707l1.5-1.5c.195-.195.512-.195.707 0l1.5 1.5c.195.195.195.512 0 .707l-1.5 1.5C34.807 38.09 34.679 38.139 34.551 38.139zM33.758 36.139l.793.793.793-.793-.793-.793L33.758 36.139zM32.854 42.212c-.128 0-.256-.049-.354-.146-.195-.195-.195-.512 0-.707l2.964-2.963c.195-.195.512-.195.707 0s.195.512 0 .707l-2.964 2.963C33.11 42.163 32.982 42.212 32.854 42.212zM32.494 46.011c-.128 0-.256-.049-.354-.146-.195-.195-.195-.512 0-.707l3.68-3.68c.195-.195.512-.195.707 0s.195.512 0 .707l-3.68 3.68C32.75 45.962 32.622 46.011 32.494 46.011zM31.832 50.426c-.128 0-.256-.049-.354-.146-.195-.195-.195-.512 0-.707l4.707-4.706c.195-.195.512-.195.707 0s.195.512 0 .707l-4.707 4.706C32.088 50.377 31.96 50.426 31.832 50.426zM32.647 53.3c-.128 0-.256-.049-.354-.146-.195-.195-.195-.512 0-.707l4.482-4.482c.195-.195.512-.195.707 0s.195.512 0 .707l-4.482 4.482C32.903 53.251 32.775 53.3 32.647 53.3z"/><path fill="#4574ba" d="M34.551 55.991c-.157 0-.306-.074-.4-.2l-3-4c-.078-.104-.112-.235-.096-.364l1.935-14.806c.036-.273.288-.466.561-.432.274.036.467.287.432.561l-1.908 14.604 2.478 3.304 2.478-3.304L35.12 36.75c-.035-.273.157-.524.432-.561.264-.035.524.157.561.432l1.935 14.806c.017.129-.018.26-.096.364l-3 4C34.856 55.917 34.708 55.991 34.551 55.991zM23.507 57.469c-.276 0-.5-.224-.5-.5V42.514c0-.276.224-.5.5-.5s.5.224.5.5v14.455C24.007 57.245 23.783 57.469 23.507 57.469zM44.507 57.469c-.276 0-.5-.224-.5-.5V42.514c0-.276.224-.5.5-.5s.5.224.5.5v14.455C45.007 57.245 44.783 57.469 44.507 57.469z"/><path fill="#4574ba" d="M52.507,58.014h-36c-0.276,0-0.5-0.224-0.5-0.5v-14c0-5.79,4.71-10.5,10.5-10.5l2.055-0.013    c0.261-0.048,0.501,0.221,0.503,0.497s-0.221,0.501-0.497,0.503l-2.058,0.013c-5.241,0-9.503,4.262-9.503,9.5v13.5h35v-13.5    c0-5.238-4.262-9.5-9.5-9.5H40.51c-0.276,0-0.5-0.224-0.5-0.5s0.224-0.5,0.5-0.5h1.997c5.79,0,10.5,4.71,10.5,10.5v14    C53.007,57.79,52.783,58.014,52.507,58.014z"/><path fill="#4574ba" d="M32.173,37.517c-0.128,0-0.256-0.049-0.354-0.146l-3.476-3.476c-0.195-0.195-0.195-0.512,0-0.707l2.371-2.371    c0.195-0.195,0.512-0.195,0.707,0l3.476,3.476c0.195,0.195,0.195,0.512,0,0.707l-2.371,2.371    C32.429,37.468,32.301,37.517,32.173,37.517z M29.404,33.541l2.769,2.769l1.664-1.664l-2.769-2.769L29.404,33.541z"/><path fill="#4574ba" d="M36.959,37.547c-0.133,0-0.26-0.053-0.354-0.146l-2.371-2.371c-0.195-0.195-0.195-0.512,0-0.707l3.555-3.555    c0.195-0.195,0.512-0.195,0.707,0l2.371,2.37c0.094,0.094,0.146,0.221,0.146,0.354s-0.053,0.26-0.146,0.354L37.313,37.4    C37.219,37.494,37.092,37.547,36.959,37.547z M35.295,34.676l1.664,1.664l2.848-2.849l-1.664-1.663L35.295,34.676z"/></svg>