<svg xmlns="http://www.w3.org/2000/svg" enable-background="new 0 0 96 96" viewBox="0 0 96 96"><linearGradient id="a" x1="651.535" x2="720.938" y1="101.162" y2="33.78" gradientTransform="matrix(3.0757 0 0 -3.0757 -1987.364 328.627)" gradientUnits="userSpaceOnUse"><stop offset="0" stop-color="#6cc7bc"/><stop offset=".394" stop-color="#4071b8"/><stop offset=".507" stop-color="#6a62ac"/><stop offset=".813" stop-color="#ef4861"/><stop offset="1" stop-color="#ec148d"/></linearGradient><path fill="url(#a)" d="M20.288,0h55.424C86.917,0,96,9.083,96,20.288v55.424C96,86.917,86.917,96,75.712,96H20.288  C9.083,96,0,86.917,0,75.712V20.288C0,9.083,9.083,0,20.288,0z"/><path fill="#f1f2f2" d="M75.511,37.489c0.276,0,0.5-0.224,0.5-0.5v-3c0-0.276-0.224-0.5-0.5-0.5h-1.5v-1.494   c0-0.276-0.224-0.5-0.5-0.5h-23c-0.276,0-0.5,0.224-0.5,0.5v11.49h-3.021v-6.496c0-1.93-1.57-3.5-3.5-3.5h-20   c-1.93,0-3.5,1.57-3.5,3.5v4.006c0,0.276,0.224,0.5,0.5,0.5h5.5v19.5c0,0.276,0.224,0.5,0.5,0.5h3.501   c0.005,1.65,1.348,2.99,2.999,2.99v0.02h25c0.033,0,0.064-0.009,0.097-0.01h15.425c0.276,0,0.5-0.224,0.5-0.5V47.489h1.5   c0.276,0,0.5-0.224,0.5-0.5v-3c0-0.276-0.224-0.5-0.5-0.5h-1.5v-1h1.5c0.276,0,0.5-0.224,0.5-0.5v-3c0-0.276-0.224-0.5-0.5-0.5   h-1.5v-1H75.511z M75.011,34.489v2h-1v-2H75.011z M51.011,32.495h18v19.232l-2.777,1.852c-0.139,0.093-0.223,0.249-0.223,0.416v9.5   h-5.794c0.475-0.531,0.772-1.224,0.772-1.99v-6.52v-3.48v-5.02c0-1.654-1.346-3-3-3h-6.979V32.495z M57.989,44.485   c1.103,0,2,0.897,2,2v2.8c-0.532-0.48-1.229-0.78-2-0.78h-11v-4.02H57.989z M20.989,40.495v-3.506c0-1.378,1.121-2.5,2.5-2.5   s2.5,1.122,2.5,2.5v3v0.506H20.989z M26.989,40.995v-1.006v-3c0-0.98-0.407-1.864-1.058-2.5h17.558c1.379,0,2.5,1.122,2.5,2.5   v11.516h-8c-0.101,0-0.197,0.02-0.296,0.03c-0.063-0.028-0.131-0.046-0.204-0.046h-8c-0.276,0-0.5,0.224-0.5,0.5s0.224,0.5,0.5,0.5   h6.293c-0.484,0.53-0.787,1.228-0.792,2h-5.502c-0.276,0-0.5,0.224-0.5,0.5s0.224,0.5,0.5,0.5h5.5v2h-5.5   c-0.276,0-0.5,0.224-0.5,0.5s0.224,0.5,0.5,0.5h5.5v2h-5.5c-0.276,0-0.5,0.224-0.5,0.5s0.224,0.5,0.5,0.5h5.5v2.006h-8V40.995z    M32.989,63.505v-0.02c-1.099,0-1.994-0.892-1.999-1.99h3.999v0.01C34.989,62.608,34.092,63.505,32.989,63.505z M35.989,61.505v-10   c0-1.103,0.897-2,2-2h20c1.103,0,2,0.897,2,2v3.48v6.52c0,1.07-0.846,1.939-1.903,1.99h-7.575c-0.017,0-0.032,0.008-0.048,0.01   H35.224C35.699,62.974,35.989,62.272,35.989,61.505z M73.011,63.495h-6v-9.232l2.777-1.852c0.139-0.093,0.223-0.249,0.223-0.416   v-19.5h3v1.494v3v2v3v2v3V63.495z M75.011,44.489v2h-1v-2H75.011z M75.011,39.489v2h-1v-2H75.011z"/><path fill="#f1f2f2" d="M32.489 37.489h8c.276 0 .5-.224.5-.5s-.224-.5-.5-.5h-8c-.276 0-.5.224-.5.5S32.213 37.489 32.489 37.489zM29.489 40.489h14c.276 0 .5-.224.5-.5s-.224-.5-.5-.5h-14c-.276 0-.5.224-.5.5S29.213 40.489 29.489 40.489zM29.489 43.489h14c.276 0 .5-.224.5-.5s-.224-.5-.5-.5h-14c-.276 0-.5.224-.5.5S29.213 43.489 29.489 43.489zM29.489 46.489h14c.276 0 .5-.224.5-.5s-.224-.5-.5-.5h-14c-.276 0-.5.224-.5.5S29.213 46.489 29.489 46.489zM66.011 38.995v-3c0-.276-.224-.5-.5-.5h-8c-.276 0-.5.224-.5.5v3c0 .276.224.5.5.5h8C65.787 39.495 66.011 39.271 66.011 38.995zM65.011 38.495h-7v-2h7V38.495z"/></svg>