<svg xmlns="http://www.w3.org/2000/svg" enable-background="new 0 0 1080 1080" viewBox="0 0 1080 1080"><path fill="#2A94F4" d="M816.536,598.624c-48.692-35.461-61.575-55.593-61.575-55.593
		c186.715-223.284-190.58-296.175-264.086-142.657c-30.64,63.992-93.035,62.629-199.144,82.732
		c-98,18.567-94.943,119.404-14.163,198.31h584.126C875.401,633.852,838.758,614.807,816.536,598.624z" opacity=".05"/><defs><path id="a" d="M816.536,598.479c-48.692-35.461-61.575-55.593-61.575-55.593
			c186.715-223.284-190.58-296.175-264.086-142.657c-30.64,63.992-93.035,62.629-199.144,82.732
			c-98,18.567-94.943,119.404-14.163,198.31h584.126C875.401,633.707,838.758,614.662,816.536,598.479z"/></defs><path fill="#2A94F4" d="M450.822,351.139c0,0-5.338-7.013-8.609-10.227c-5.892-5.788-12.649-16.018-34.259-8.478
	c-1.68,0.586-3.307,1.363-4.924,2.146c-1.905,0.922-7.806,0.946-13.85-4.535c-9.603-8.71-13.359-15.282-26.517-15.486
	c-15.309-0.238-17.717,21.561-29.616,27.14c-7.572,3.551-27.55,7.08-31.682,8.653L450.822,351.139z" opacity=".1"/><path fill="#2A94F4" d="M296.201,643.923c1.009,0.062,26.483-2.997,27.641-26.686c1.158-23.688-15.076-29.555-10.803-55.926
	c4.273-26.372,15.48-33.949-9.638-53.197c0,0-11.2-7.75-11.722-18.622c-0.624-13.013-23.089-28.117-38.157-19.436
	c-15.068,8.681-11.527,22.094,1.375,43.797c12.902,21.703,0.469,25.492-2.011,32.508c-2.479,7.016-8.23,14.378,4.939,31.148
	c13.169,16.77-2.52,37.245,8.69,53.303C266.516,630.813,276.353,642.699,296.201,643.923z"/><path fill="#0B4870" d="M292.222,680.232c-0.546-0.139-0.898-0.681-0.791-1.242c13.684-72.305-14.21-170.91-14.493-171.897
		c-0.164-0.571,0.166-1.167,0.737-1.33c0.57-0.166,1.167,0.165,1.33,0.737c0.285,0.992,28.317,100.089,14.539,172.89
		c-0.11,0.584-0.673,0.967-1.257,0.857C292.266,680.242,292.244,680.237,292.222,680.232z"/><path fill="#0B4870" d="M286.51 545.797c-.059-.015-.118-.035-.175-.061-.542-.243-.785-.879-.543-1.421.057-.128 5.743-12.906 8.076-23.817.125-.581.696-.951 1.277-.827.586.122.951.696.827 1.277-2.38 11.136-8.158 24.115-8.216 24.245C287.539 545.677 287.008 545.923 286.51 545.797zM290.189 567.671c-.149-.038-.293-.109-.42-.214-5.407-4.472-19.009-12.891-19.146-12.976-.505-.312-.662-.975-.349-1.48.311-.505.971-.668 1.48-.349.563.348 13.864 8.582 19.386 13.148.458.378.522 1.056.143 1.514C291.01 567.646 290.58 567.77 290.189 567.671zM293.243 588.969c-.075-.019-.149-.047-.222-.083-.53-.268-.742-.916-.474-1.446l7.581-14.975c.268-.529.913-.745 1.446-.473.53.269.742.916.473 1.446l-7.581 14.975C294.235 588.87 293.72 589.09 293.243 588.969z"/><path fill="#FFF" d="M528.442 405.742l-.941-2.685-.941 2.685c-.793 2.264-2.678 4.175-5.23 5.303l0 0 0 0c2.552 1.129 4.436 3.04 5.23 5.303l.941 2.686.941-2.686c.793-2.264 2.678-4.174 5.23-5.303l0 0 0 0C531.12 409.917 529.236 408.006 528.442 405.742zM686.133 375.362l-1.579-4.503-1.578 4.503c-1.33 3.796-4.49 7-8.769 8.893l0 0 0 0c4.279 1.893 7.439 5.097 8.769 8.893l1.578 4.503 1.579-4.503c1.33-3.796 4.49-7 8.769-8.893l0 0 0 0C690.623 382.361 687.463 379.157 686.133 375.362z"/><g opacity=".5"><path fill="#2A94F4" d="M765.797 657.866H369.778V444.052c0-1.925 1.56-3.485 3.485-3.485h389.049c1.925 0 3.485 1.56 3.485 3.485V657.866zM784.314 680.841H351.261c-1.982 0-3.588-1.607-3.588-3.588v-19.386h440.23v19.386C787.902 679.234 786.296 680.841 784.314 680.841z"/><path fill="#FFF" d="M516.339,657.866l4.635,4.458c1.839,1.769,4.291,2.757,6.843,2.757h80.62c2.842,0,5.546-1.225,7.42-3.362
		l3.38-3.853H516.339z"/><rect width="366.552" height="190.482" x="384.511" y="454.942" fill="#F7F7F7"/></g><line x1="246.876" x2="893.953" y1="680.841" y2="680.841" fill="none" stroke="#102236" stroke-linecap="round" stroke-linejoin="round" stroke-miterlimit="10" stroke-width=".375"/><circle cx="577.418" cy="355.733" r="49.541" fill="#FFBE55"/><path fill="#FFBE55" d="M577.418,397.65c-23.114,0-41.917-18.804-41.917-41.917c0-23.113,18.804-41.917,41.917-41.917
			c23.113,0,41.917,18.804,41.917,41.917C619.335,378.846,600.531,397.65,577.418,397.65z"/><path fill="#FFF" d="M586.299,354.256c3.05-1.069,4.988-4.219,4.988-8.116c0-5.439-3.708-9.028-9.632-9.414v-4.859h-5.946v4.823
		h-2.73v-4.823h-5.947v4.823h-4.431v7.637h4.24v22.153h-4.24v7.633h4.431v5.485h5.947v-5.485h2.73v5.485h5.946v-5.495
		c6.482-0.211,10.58-4.166,10.58-10.397C592.234,358.9,589.967,355.218,586.299,354.256z M574.343,344.327h5.814
		c0.558,0,1.062,0.093,1.498,0.275c1.18,0.49,1.881,1.613,1.881,3.246c0,1.713-0.701,2.914-1.881,3.44
		c-0.436,0.193-0.94,0.297-1.498,0.297h-5.814V344.327z M581.655,366.348c-0.454,0.122-0.955,0.186-1.498,0.186l-5.814-0.054v-7.848
		h5.814c0.544,0,1.044,0.064,1.498,0.186c1.748,0.465,2.789,1.791,2.789,3.658C584.444,364.51,583.403,365.873,581.655,366.348z"/><circle cx="369.698" cy="446.947" r="32.075" fill="#FFBE55"/><path fill="#FFBE55" d="M369.698,474.086c-14.965,0-27.139-12.175-27.139-27.139s12.175-27.139,27.139-27.139
						s27.139,12.175,27.139,27.139S384.663,474.086,369.698,474.086z"/><path fill="#FFF" d="M385.577,445.054c-0.469-2.804-3.124-4.803-5.949-4.487c-2.38,0.266-4.216,2.033-4.695,4.244l-2.072,0.249
		c-2.035,0.244-4.07-0.46-5.52-1.909l-1.475-1.475c0.99-2.035,0.637-4.558-1.069-6.238c-2.026-1.994-5.348-2.062-7.45-0.148
		c-2.304,2.099-2.367,5.67-0.188,7.849c1.679,1.679,4.184,2.021,6.206,1.038l1.02,1.02c1.598,1.597,2.28,3.894,1.813,6.105
		l-0.334,1.577c-2.245,0.28-4.167,1.953-4.643,4.3c-0.565,2.786,1.19,5.607,3.941,6.324c3.016,0.785,6.042-1.111,6.679-4.125
		c0.491-2.324-0.589-4.61-2.517-5.767c0.591-2.799,2.9-4.911,5.74-5.252l0.29-0.035c0.982,2.023,3.163,3.301,5.521,3.018
		C383.935,450.974,386.092,448.128,385.577,445.054z"/><g><rect width="64.149" height="9.148" x="550.715" y="725.612" fill="#FFBE55"/><path fill="#FFBE55" d="M582.79,712.641c-17.715,0-32.075,9.903-32.075,22.118c0,12.216,14.361,22.119,32.075,22.119
		c17.714,0,32.074-9.903,32.074-22.119C614.865,722.544,600.505,712.641,582.79,712.641z"/><ellipse cx="582.79" cy="725.612" fill="#FFBE55" rx="32.075" ry="22.119"/><path fill="#FFBE55" d="M582.79,744.327c-14.965,0-27.139-8.395-27.139-18.715c0-10.32,12.175-18.715,27.139-18.715
							c14.964,0,27.139,8.395,27.139,18.715C609.929,735.932,597.755,744.327,582.79,744.327z"/><path fill="#FFF" d="M598.669,724.307c-0.469-1.934-3.124-3.312-5.949-3.094c-2.38,0.183-4.216,1.402-4.695,2.927l-2.072,0.172
			c-2.036,0.168-4.07-0.317-5.52-1.317l-1.476-1.018c0.99-1.403,0.638-3.143-1.069-4.301c-2.026-1.375-5.348-1.422-7.45-0.102
			c-2.304,1.447-2.367,3.91-0.188,5.412c1.679,1.158,4.184,1.394,6.206,0.716l1.02,0.703c1.598,1.102,2.279,2.686,1.813,4.21
			l-0.334,1.088c-2.245,0.193-4.167,1.347-4.643,2.965c-0.565,1.921,1.19,3.867,3.941,4.361c3.016,0.542,6.042-0.766,6.679-2.845
			c0.491-1.603-0.589-3.179-2.517-3.977c0.591-1.93,2.9-3.387,5.74-3.622l0.29-0.024c0.982,1.395,3.163,2.276,5.521,2.081
			C597.027,728.389,599.184,726.426,598.669,724.307z"/></g><g><path fill="#B8B8B8" d="M565.036,535.714H421.361c-0.569,0-1.031-0.462-1.031-1.031v-45.648
		c0-0.569,0.461-1.031,1.031-1.031h143.674c0.569,0,1.031,0.462,1.031,1.031v45.648
		C566.067,535.252,565.605,535.714,565.036,535.714z" opacity=".16"/><path fill="#FFBE55" d="M576.284,522.383H438.478c-0.558,0-1.01-0.452-1.01-1.01v-45.691c0-0.558,0.452-1.01,1.01-1.01h137.806
		c0.558,0,1.01,0.452,1.01,1.01v45.691C577.293,521.931,576.841,522.383,576.284,522.383z"/><path fill="#FFF" d="M554.528 492.392h-98.686c-.856 0-1.549-.692-1.549-1.549 0-.857.692-1.549 1.549-1.549h98.686c.857 0 1.549.692 1.549 1.549C556.078 491.699 555.385 492.392 554.528 492.392zM501.441 507.762h-45.599c-.856 0-1.549-.692-1.549-1.549 0-.856.692-1.549 1.549-1.549h45.599c.857 0 1.549.692 1.549 1.549C502.99 507.07 502.298 507.762 501.441 507.762z"/></g><g><path fill="#B8B8B8" d="M503.029,617.792H369.778V567.61c0-0.566,0.459-1.025,1.025-1.025h132.226
		c0.566,0,1.025,0.459,1.025,1.025v49.156C504.054,617.333,503.595,617.792,503.029,617.792z" opacity=".16"/><path fill="#FFBE55" d="M526.28,603.484H338.284c-0.674,0-1.221-0.547-1.221-1.221v-48.765c0-0.674,0.547-1.221,1.221-1.221
			H526.28c0.674,0,1.221,0.547,1.221,1.221v48.765C527.501,602.938,526.954,603.484,526.28,603.484z"/><path fill="#FFF" d="M504.916 571.295H398.998c-.919 0-1.662-.743-1.662-1.662 0-.919.743-1.662 1.662-1.662h105.918c.919 0 1.662.743 1.662 1.662C506.578 570.552 505.835 571.295 504.916 571.295zM447.938 587.792h-48.94c-.919 0-1.662-.743-1.662-1.662s.743-1.662 1.662-1.662h48.94c.919 0 1.662.743 1.662 1.662S448.858 587.792 447.938 587.792zM382.903 592.188H352.26c-.6 0-1.087-.487-1.087-1.087v-27.63c0-.6.487-1.087 1.087-1.087h30.643c.6 0 1.087.487 1.087 1.087v27.63C383.99 591.702 383.503 592.188 382.903 592.188z"/></g><g><path fill="#EBEDFD" d="M720.024,632.546H580.738c-0.743,0-1.345-0.602-1.345-1.345v-80.64c0-0.743,0.602-1.345,1.345-1.345
		h139.286c0.743,0,1.345,0.602,1.345,1.345v80.64C721.369,631.944,720.767,632.546,720.024,632.546z"/><rect width=".988" height="49.446" x="688.465" y="567.864" fill="#FFF"/><rect width=".988" height="49.446" x="673.542" y="567.864" fill="#FFF"/><rect width=".988" height="49.446" x="658.619" y="567.864" fill="#FFF"/><rect width=".988" height="49.446" x="643.697" y="567.864" fill="#FFF"/><rect width=".988" height="49.446" x="628.774" y="567.864" fill="#FFF"/><rect width=".988" height="49.446" x="613.851" y="567.864" fill="#FFF"/><rect width="98.017" height=".988" x="602.036" y="623" fill="#FFF"/><path fill="#FFBE55" d="M636.798,615.666c-0.396,0-0.801-0.049-1.209-0.149c-5.686-1.398-8.619-6.622-10.979-10.818
		c-1.645-2.928-3.198-5.695-4.897-5.695c-5.537,0-9.021,6.541-11.823,11.797c-0.54,1.016-1.048,1.966-1.533,2.799
		c-0.517,0.895-1.659,1.211-2.566,0.677c-0.896-0.519-1.2-1.671-0.677-2.566c0.462-0.795,0.947-1.705,1.464-2.675
		c3.1-5.818,7.345-13.786,15.135-13.786c3.898,0,5.973,3.697,8.172,7.609c2.21,3.935,4.495,8.003,8.6,9.013
		c0.344,0.086,0.58,0.049,0.858-0.135c2.426-1.599,3.835-10.089,4.966-16.909c1.702-10.264,3.054-18.399,8.086-18.399
		c0.066,0,0.135,0,0.204,0.006c5.06,0.215,6.576,6.811,8.178,13.795c1.337,5.832,2.853,12.443,6.128,12.922
		c3.872,0.571,5.376-0.746,7.288-2.402c1.774-1.536,3.998-3.439,8.011-3.077c3.585,0.33,5.614,2.692,7.402,4.776
		c2.448,2.847,4.736,5.534,11.298,4.874c1.039-0.063,1.952,0.649,2.058,1.679c0.103,1.03-0.646,1.952-1.679,2.058
		c-8.499,0.864-11.837-3.034-14.524-6.162c-1.808-2.104-2.925-3.304-4.9-3.487c-2.437-0.227-3.594,0.784-5.207,2.179
		c-2.104,1.826-4.716,4.087-10.293,3.278c-5.815-0.85-7.557-8.447-9.242-15.795c-1.105-4.808-2.477-10.792-4.679-10.887
		c-0.006,0-0.014,0-0.023,0c-1.869,0-3.579,10.298-4.4,15.258c-1.447,8.706-2.81,16.926-6.605,19.429
		C638.609,615.399,637.723,615.666,636.798,615.666z"/></g><g><path fill="#FFBE55" d="M507.387 721.216l-96.768-15.249c-.822-.129-1.384-.901-1.254-1.724l0 0c.13-.822.901-1.384 1.724-1.254l96.768 15.249c.822.129 1.384.901 1.254 1.723l0 0C508.981 720.784 508.209 721.345 507.387 721.216zM474.904 727.744H387.83c-.74 0-1.34-.6-1.34-1.34l0 0c0-.74.6-1.34 1.34-1.34h87.074c.74 0 1.34.6 1.34 1.34l0 0C476.244 727.144 475.644 727.744 474.904 727.744z"/></g><path fill="#2A94F4" d="M606.705,274.343c0,0,2.678-3.08,4.319-4.491c2.956-2.542,6.345-7.035,17.185-3.723
	c0.843,0.257,1.659,0.599,2.47,0.943c0.956,0.405,3.916,0.415,6.948-1.992c4.817-3.825,6.701-6.711,13.301-6.801
	c7.68-0.105,8.888,9.469,14.856,11.919c3.799,1.559,13.82,3.109,15.893,3.8L606.705,274.343z" opacity=".1"/><g><path fill="#FA968C" d="M808.645 703.144c0 0 3.819 11.265 4.604 13.131.648 1.54 2.038 2.573 3.356 3.601.422.329.841 1.072 1.197 1.698.286.503.268 1.097.039 1.629-3.999 9.286-14.825 12.511-15.035 11.786-.378-1.308 1.339-3.804 3.636-4.974 2.312-1.177 3.741-3.586 3.982-6.169l0 0c.192-2.055-.15-4.125-.991-6.009l-3.873-8.445L808.645 703.144zM792.617 716.098l-3.299 11.626c-1.009 3.555-.707 7.36.845 10.713 0 .001.001.002.001.002.872 1.875-.117 4.083-2.1 4.67-6.409 1.896-18.831 5.488-19.349 4.997-2.64-2.501 4.896-5.965 10.532-9.735 3.801-2.542 5.902-15.249 6.767-25.036l5.724 1.781C792.181 715.267 792.515 715.64 792.617 716.098z"/><path fill="#0B4870" d="M780.295 741.786c-2.65.713-5.518.833-8.15 1.011-.302.02-.595.121-.844.293-2.615 1.805-3.988 3.69-2.588 5.016.563.533 15.161-3.748 20.856-5.444 1.191-.355 1.776-1.68 1.252-2.807l-.954-2.052C786.846 739.5 783.653 740.883 780.295 741.786zM794.903 584.782c6.87 1.327 12.327 9.632 10.619 18.475-.981 5.081-6.756 23.146-12.796 37.344-2.318 5.449-1.844 11.798 1.672 16.563.573.776 1.063 1.574 1.443 2.377 1.963 4.143 9.061 28.372 13.123 44.503-.508 2.054-1.891 4.617-3.495 5.447-7.942-13.945-20.709-39.306-22.796-43.713-1.159-2.448-2.418-5.274-3.305-7.911-5.212-7.752-1.831-49.271-.247-57.475C780.83 591.55 788.033 583.456 794.903 584.782z"/><ellipse cx="795.766" cy="534.844" fill="#0B4870" rx="13.768" ry="10.673" transform="rotate(-86.841 795.78 534.828)"/><path fill="#0B4870" d="M798.244 536.403c.589-7.6 7.102-13.656 14.725-13.671 6.762-.014 12.355 4.438 14.208 10.456.649 2.109 2.601 3.566 4.806 3.655.916.037 1.852.173 2.8.422 5.506 1.448 9.57 6.391 9.845 12.078.248 5.129-2.392 9.573-6.371 11.973-1.697 1.023-2.73 2.818-3.109 4.763-1.755 9-10.404 15.205-19.794 13.65-8.031-1.33-14.13-8.336-14.371-16.472-.148-4.991 1.809-9.453 4.994-12.671C801.001 547.887 797.775 542.455 798.244 536.403zM796.773 516.586c0 0-6.204 3.443-5.755 8.567 0 0-3.077-2.445-3.371-10.296C787.443 509.416 796.773 516.586 796.773 516.586z"/><path fill="#FAB9AF" d="M791.25,547.353c-0.142,1.782-0.533,3.755-1.591,5.71c-0.556,0.971-1.279,1.899-2.157,2.677
		c-0.889,0.763-1.886,1.348-2.891,1.752c-2.02,0.782-3.938,0.921-5.666,0.856c-1.741-0.067-3.349-0.342-4.883-0.707
		c-3.064-0.746-5.861-1.838-8.565-3.036c-2.702-1.202-5.297-2.533-7.819-3.968c-5.042-2.863-9.848-6.01-14.52-9.323
		c-4.673-3.316-9.197-6.798-13.479-10.652c-0.47-0.423-0.508-1.147-0.085-1.617c0.394-0.438,1.049-0.501,1.517-0.166l0.015,0.011
		c2.261,1.633,4.624,3.17,7.006,4.661c2.38,1.496,4.779,2.962,7.211,4.365c4.861,2.807,9.824,5.428,14.881,7.705
		c2.533,1.123,5.071,2.2,7.629,3.104c2.551,0.906,5.136,1.658,7.622,2.07c1.238,0.211,2.45,0.319,3.543,0.283
		c1.098-0.023,2.049-0.235,2.655-0.541c0.604-0.32,0.859-0.616,1.132-1.155c0.247-0.568,0.439-1.43,0.457-2.47
		c0.038-2.21,1.861-3.971,4.071-3.933c2.21,0.038,3.971,1.861,3.933,4.071c-0.001,0.08-0.005,0.159-0.011,0.237L791.25,547.353z"/><path fill="#FFBE55" d="M786.901,573.536c-2.001-7.362-5.982-22.938-5.293-27.919c0.441-3.191,3.255-5.498,6.472-5.321
		l20.869,1.151c3.46,0.191,6.14,3.091,6.05,6.555c-0.157,6.054-3.701,19.657-5.664,26.771L786.901,573.536z"/><path fill="#0B4870" d="M785.999,715.881c-0.317-0.218-0.479-0.601-0.447-0.984c1.288-15.325,3.3-34.839,3.845-38.57
		c0.062-0.427,0.137-0.847,0.222-1.259c-2.288-18.326-0.634-57.362-0.584-64.211c0.066-9.006,6.035-18.843,13.031-18.791
		c6.997,0.051,14.173,7.692,15.96,16.045c1.179,5.512-6.132,34.097-13.482,54.701c-1.547,4.337-2.008,8.963-1.602,13.55
		c0.28,3.172,0.237,6.423-0.123,8.889c-0.536,3.672-5.498,18.47-10.084,31.122c-0.133,0.366-0.446,0.644-0.831,0.707
		C789.874,717.411,787.791,717.113,785.999,715.881z"/><path fill="#FFBE55" d="M811.215,584.07c-0.913-3.091-1.058-6.352-0.429-9.512c1.461-7.338,4.069-21.17,4.226-27.094
		c0.084-3.167-2.368-5.812-5.532-5.987l-3.094-0.171c-1.329,2.669-3.943,4.643-7.826,4.428c-3.877-0.214-6.258-2.463-7.288-5.262
		l-2.906-0.16c2.785,6.935,1.158,15.791-4.562,20.696c0.813,3.624,1.464,7.262,1.938,10.208c0.643,3.99,0.036,8.077-1.721,11.716
		c-3.021,6.254-5.7,16.403-5.295,20.506c21.61,7.433,37.399-2.742,37.399-2.742L811.215,584.07z"/><polygon fill="#FAB9AF" points="795.364 542.139 804.886 541.667 802.462 531.142 796.297 531.562"/><path fill="#FA968C" d="M796.297,531.562l6.165-0.42l0.757,3.286c-1.456,1.47-3.402,4.711-5.63,4.588
		c-0.707-0.039-1.34-0.274-1.899-0.673L796.297,531.562z"/><path fill="#FAB9AF" d="M795.809,536.558c2.079,0.114,4.385-0.802,7.632-3.337c1.864-1.456,3.331-4.092,3.432-5.923l0.558-10.124
		l-15.587-0.86c0,0-1.466,5.311-0.625,10.708C791.852,531.071,794.174,536.469,795.809,536.558z"/><path fill="#FAB9AF" d="M804.337,525.238c-0.109,1.975,0.748,3.629,1.915,3.693c1.166,0.064,2.595-2.454,2.704-4.429
		c0.109-1.975-1.143-2.66-2.31-2.724C805.48,521.713,804.446,523.262,804.337,525.238z"/><path fill="#0B4870" d="M809.286,518.507c0.174-3.161-2.248-5.865-5.409-6.038l-5.261-0.288c-1.505-0.082-2.942-0.557-4.182-1.353
		c-1.798-1.156-4.164-0.934-5.525,0.714c-1.471,1.781-2.2,4.235,1.144,6.729c1.662,1.24,4.255,0.111,5.905,0.753
		c0.104,0.001,0.197-0.01,0.305-0.004l4.637,0.256c1.611,0.089,2.772,1.474,2.729,3.087c-0.027,1.02,0.763,1.883,1.789,1.94
		l0.206,0.011l0.874-2.338l2.396,3.633L809.286,518.507z"/><path fill="#FAB9AF" d="M730.587 524.279c0 0 2.498 4.898 1.255 6.156-1.242 1.258-2.307 1.875-4.206.135-1.899-1.74-3.674-5.031-4.344-7.218s-.245-6.326.093-6.738c1.231-1.504 2.028 2.585 2.511 4.546.483 1.961 1.223 4.128 2.101 3.629.878-.499-.329-4.185.488-5.09C729.301 518.795 730.587 524.279 730.587 524.279zM775.783 587.392c0 0 5.467-.586 6.199 1.024.732 1.609.928 2.824-1.374 3.977-2.303 1.153-6.011 1.638-8.293 1.483-2.282-.154-5.997-2.028-6.262-2.491-.966-1.686 3.138-.972 5.142-.724 2.004.249 4.292.331 4.139-.668-.153-.998-4.027-1.186-4.581-2.272C770.2 586.636 775.783 587.392 775.783 587.392z"/><path fill="#0B4870" d="M793.018,516.201c0.395,2.342-0.446,3.564,6.936,7.592c7.382,4.028,9.866,2.618,12.02,6.635
		c0,0-0.68-6.495-4.745-8.935c-4.065-2.441-11.247-4.285-13.294-9.53C793.934,511.962,792.748,514.601,793.018,516.201z"/><path fill="#FAB9AF" d="M814.188,546.136c1.067,1.588,1.917,3.04,2.783,4.601c0.848,1.542,1.663,3.102,2.405,4.705
		c1.477,3.207,2.768,6.531,3.719,10.034c0.92,3.506,1.509,7.213,1.266,11.113c-0.137,1.945-0.508,3.939-1.223,5.868
		c-0.695,1.933-1.815,3.764-3.213,5.291c-1.394,1.536-3.049,2.76-4.773,3.682c-1.728,0.926-3.522,1.569-5.31,2.044
		c-1.792,0.471-3.581,0.733-5.357,0.932c-1.775,0.142-3.541,0.223-5.285,0.176c-6.985-0.115-13.718-1.344-20.299-2.95
		c-0.615-0.15-0.992-0.77-0.842-1.385c0.138-0.565,0.673-0.929,1.236-0.868l0.013,0.002c6.628,0.713,13.292,1.198,19.744,0.682
		c3.214-0.273,6.37-0.8,9.234-1.778c2.845-0.995,5.345-2.512,6.896-4.568c1.574-2.031,2.261-4.601,2.289-7.419
		c0.015-2.823-0.629-5.807-1.561-8.74c-0.92-2.946-2.173-5.861-3.614-8.698c-0.715-1.421-1.463-2.834-2.26-4.217
		c-0.789-1.359-1.66-2.792-2.455-3.997l-0.052-0.078c-1.217-1.844-0.709-4.324,1.135-5.541
		C810.499,543.818,812.965,544.316,814.188,546.136z"/><path fill="#0B4870" d="M794.452 516.713c0 0-.717 7.775-7.731 11.141 0 0 3.325-5.723 3.333-9.584S795.048 514.077 794.452 516.713zM820.2 726.044c.479-.493.53-1.258.117-1.807-.338-.449-1.234-1.678-1.908-2.601-.293-.401-.889-.345-1.127.091-2.699 4.928-6.958 8.652-12.267 9.087-1.773 1.061-3.006 3.61-2.707 4.646.07.243 2.407.405 4.943-.866C818.51 728.947 820.2 726.044 820.2 726.044z"/></g><g><circle cx="724.003" cy="492.392" r="34.551" fill="#FFBE55"/><path fill="#FFBE55" d="M724.003,521.625c-16.12,0-29.234-13.114-29.234-29.234c0-16.119,13.114-29.234,29.234-29.234
						c16.119,0,29.234,13.114,29.234,29.234C753.237,508.511,740.122,521.625,724.003,521.625z"/><polygon fill="#FFF" points="724.003 473.736 713.373 490.831 724.003 495.817 734.633 490.831"/><polygon fill="#FFF" points="724.003 511.047 734.633 493.952 724.003 500.909 713.373 493.952"/></g></svg>